<svg xmlns="http://www.w3.org/2000/svg" width="100%" height="100%" viewBox="0 0 295 200" fill-rule="evenodd" stroke-linejoin="round" stroke-miterlimit="2" xmlns:v="https://vecta.io/nano"><path d="M201.654 20.284c-1.394 0-2.377.167-3.369.412v.165h.16c.664 1.309 1.815 2.217 2.63 3.365l1.894 3.933.16-.165c1.159-.817 1.733-2.129 1.733-4.101-.497-.577-.574-1.146-.988-1.723-.492-.818-1.561-1.229-2.219-1.886z" fill="#5e89a3"/><path d="M70.924 182.2H59.542c-.402-19.179-1.512-37.214-3.325-54.108h-.098L38.786 182.2H30.12l-17.227-54.108h-.1c-1.278 16.224-2.082 34.259-2.416 54.108H0c.671-24.139 2.349-46.767 5.035-67.889h14.107l16.423 49.882h.1l16.523-49.882h13.499c2.955 24.737 4.702 47.372 5.237 67.889zm49.367-50.089c-4.635 25.107-10.75 43.352-18.338 54.733C96.04 195.615 89.562 200 82.509 200c-1.88 0-4.2-.566-6.951-1.69v-6.052c1.343.196 2.921.301 4.735.301 3.29 0 5.943-.908 7.96-2.72 2.416-2.208 3.625-4.69 3.625-7.44 0-1.879-.943-5.733-2.821-11.564L76.565 132.11h11.182l8.966 28.962c2.014 6.576 2.855 11.168 2.518 13.783 4.904-13.075 8.329-27.324 10.279-42.745h10.78z" fill="#0c7691" fill-rule="nonzero"/><g fill="#f3921f"><path d="M271.813 182.2h-32.338v-67.889h10.882v59.539h21.456v8.35z" fill-rule="nonzero"/><path d="M190.513 168.619c-2.755-4.425-4.135-11.527-4.135-21.319 0-17.095 5.207-25.648 15.617-25.648 5.443 0 9.437 2.045 11.991 6.132 2.751 4.427 4.131 11.468 4.131 21.123 0 17.232-5.207 25.851-15.617 25.851-5.441 0-9.437-2.044-11.988-6.14zm40.5 15.218l-12.5-6.154c1.113-.91 2.17-1.895 3.127-3.032 5.307-6.229 7.964-15.448 7.964-27.653 0-22.46-8.833-33.696-26.497-33.696-8.664 0-15.417 2.848-20.252 8.553-5.309 6.236-7.96 15.42-7.96 27.557 0 11.934 2.349 20.688 7.051 26.249 4.3 5.027 10.782 7.543 19.448 7.543 3.236 0 6.205-.398 8.903-1.194l16.279 9.457 4.438-7.631z"/><path d="M170.153 163.382c0 5.757-2.119 10.484-6.343 14.182-4.228 3.682-9.907 5.528-17.019 5.528-6.652 0-13.099-2.124-19.344-6.338l2.921-5.833c5.374 2.683 10.237 4.021 14.604 4.021 4.096 0 7.302-.91 9.621-2.708 2.314-1.81 3.701-4.336 3.701-7.54 0-4.031-2.816-7.477-7.983-10.367l-14.303-8.069c-5.165-3.761-7.755-7.797-7.755-14.447 0-5.5 1.931-9.944 5.788-13.325 3.866-3.39 8.854-5.084 14.962-5.084 6.313 0 12.054 1.683 17.225 5.034l-2.626 5.826c-4.424-1.872-8.787-2.811-13.089-2.811-3.49 0-6.18.836-8.055 2.519-1.886 1.669-3.051 3.815-3.051 6.432 0 4.021 2.878 7.508 8.19 10.455 4.83 2.615 14.597 8.176 14.597 8.176 5.311 3.754 7.96 7.757 7.96 14.351z" fill-rule="nonzero"/></g><path d="M285.468 91.569c-6.577-.165-11.67.491-15.941 2.298-1.232.491-3.202.491-3.371 2.051.662.655.741 1.719 1.32 2.627.983 1.639 2.705 3.851 4.27 5.002 1.726 1.313 3.452 2.62 5.262 3.768 3.202 1.977 6.819 3.121 9.937 5.091 1.814 1.146 3.615 2.622 5.429 3.856.901.655 1.471 1.723 2.626 2.129v-.249c-.579-.736-.741-1.802-1.313-2.627-.82-.815-1.643-1.556-2.467-2.373-2.384-3.199-5.346-5.985-8.543-8.283-2.632-1.809-8.387-4.269-9.451-7.296l-.167-.168c1.808-.165 3.949-.822 5.673-1.321 2.79-.736 5.337-.57 8.213-1.306 1.317-.329 2.632-.743 3.952-1.146v-.743c-1.487-1.474-2.551-3.446-4.112-4.839-4.187-3.607-8.794-7.131-13.559-10.088-2.551-1.642-5.838-2.703-8.55-4.101-.981-.492-2.623-.736-3.201-1.562-1.48-1.803-2.305-4.18-3.371-6.315-2.381-4.508-4.686-9.508-6.737-14.274-1.478-3.199-2.382-6.394-4.191-9.349-8.468-13.948-17.667-22.392-31.8-30.678-3.041-1.726-6.656-2.464-10.515-3.365l-6.164-.326c-1.317-.577-2.634-2.138-3.782-2.874-4.686-2.951-16.76-9.349-20.213-.903-2.219 5.335 3.287 10.584 5.177 13.29 1.396 1.886 3.206 4.021 4.187 6.152.576 1.395.741 2.873 1.319 4.348 1.313 3.609 2.544 7.629 4.273 10.994.901 1.723 1.886 3.53 3.036 5.081.664.908 1.81 1.313 2.058 2.794-1.146 1.637-1.236 4.099-1.893 6.152-2.957 9.27-1.808 20.753 2.384 27.56 1.311 2.051 4.438 6.564 8.629 4.836 3.697-1.472 2.876-6.148 3.943-10.248.246-.992.081-1.642.572-2.298v.167l3.371 6.807c2.551 4.015 6.984 8.199 10.685 10.986 1.966 1.483 3.529 4.021 5.994 4.927v-.249h-.162c-.495-.736-1.232-1.066-1.891-1.637-1.478-1.477-3.118-3.283-4.273-4.923-3.45-4.592-6.494-9.68-9.2-14.929-1.319-2.55-2.467-5.335-3.536-7.878-.492-.978-.492-2.459-1.315-2.95-1.236 1.802-3.039 3.363-3.941 5.57-1.563 3.532-1.726 7.88-2.305 12.393-.327.086-.162 0-.327.163-2.626-.655-3.531-3.362-4.519-5.652-2.465-5.831-2.879-15.183-.739-21.91.572-1.718 3.044-7.131 2.054-8.772-.497-1.565-2.138-2.459-3.041-3.695-1.066-1.558-2.223-3.525-2.955-5.249-1.973-4.594-2.965-9.68-5.095-14.272-.987-2.136-2.716-4.352-4.108-6.317-1.564-2.217-3.288-3.773-4.523-6.395-.407-.906-.983-2.382-.328-3.363.162-.657.495-.904 1.153-1.071 1.062-.901 4.107.244 5.172.738 3.043 1.225 5.59 2.382 8.134 4.101 1.152.822 2.384 2.378 3.861 2.794h1.729c2.628.568 5.588.159 8.055.899 4.352 1.393 8.296 3.446 11.831 5.659 10.761 6.811 19.635 16.492 25.631 28.056.988 1.882 1.403 3.607 2.305 5.572 1.726 4.029 3.864 8.131 5.587 12.063 1.724 3.856 3.371 7.789 5.839 10.993 1.229 1.721 6.161 2.622 8.38 3.526 1.64.736 4.191 1.393 5.671 2.294 2.793 1.719 5.581 3.691 8.215 5.58 1.311.985 5.422 3.034 5.669 4.676z" fill="#0c7691"/><path d="M279.58 182.193h1.803v-6.907h2.36v-1.409h-6.614v1.409h2.451v6.907zm13.721 0H295v-8.316h-2.556l-2.08 5.668-2.265-5.668h-2.463v8.316h1.608v-6.331h.091l2.372 6.331h1.225l2.368-6.331v6.331z" fill="#f3921f" fill-rule="nonzero"/></svg>