<svg xmlns="http://www.w3.org/2000/svg" width="100%" height="100%" viewBox="0 0 167 200" fill-rule="nonzero" stroke-linejoin="round" stroke-miterlimit="2" xmlns:v="https://vecta.io/nano"><path d="M155.919 26.493c8.913 12.514 12.411 27.959 9.703 43.067-1.241 7.103-4.062 13.867-8.011 19.955 5.867 11.048 7.785 23.788 5.529 36.077-2.708 14.769-11.396 27.734-24.145 35.738L92.397 190.98c-26.514 16.911-63.296 9.019-81.8-17.587-8.913-12.289-12.411-27.847-9.703-42.954 1.241-7.103 4.062-13.867 8.011-19.955C3.038 99.435 1.12 86.696 3.377 74.407 6.085 59.638 14.772 46.56 27.522 38.669L74.119 8.905c26.514-16.911 63.183-9.019 81.8 17.587" fill="#ff3e00"/><path d="M69.493 176.098c3.385-.902 6.544-2.255 9.477-4.171l46.598-29.651c7.672-4.848 12.975-12.627 14.555-21.533 1.58-9.019-.451-18.377-5.867-25.93-8.801-12.74-24.709-18.602-39.715-14.769-3.385.902-6.544 2.255-9.477 4.171L67.237 95.489c-.903.564-1.805 1.015-2.821 1.24-4.513 1.127-9.365-.564-11.96-4.397-1.58-2.255-2.257-5.073-1.805-7.779s2.031-5.073 4.4-6.426l46.598-29.651c.903-.564 1.805-1.015 2.821-1.24 4.513-1.127 9.365.564 11.96 4.397 1.467 2.029 2.144 4.51 1.918 6.877v1.691c-.113 0 1.58.564 1.58.564 6.544 2.029 12.749 5.073 18.278 9.132l2.369 1.804.903-2.706c.451-1.466.79-2.931 1.128-4.397 1.58-9.019-.451-18.377-5.867-25.93-8.801-12.74-24.709-18.602-39.715-14.769-3.385.902-6.544 2.255-9.477 4.171L40.948 57.722c-7.672 4.848-12.975 12.627-14.555 21.533-1.58 9.019.451 18.377 5.867 25.93 8.801 12.74 24.709 18.602 39.715 14.769 3.385-.902 6.544-2.255 9.477-4.171l17.827-11.387c.903-.564 1.805-1.015 2.821-1.24 4.513-1.127 9.365.564 11.96 4.397 1.58 2.255 2.257 5.073 1.805 7.779s-2.031 5.073-4.4 6.539l-46.598 29.651c-.903.564-1.805 1.015-2.821 1.24-4.513 1.127-9.365-.564-11.96-4.397-1.467-2.029-2.144-4.51-1.918-6.877v-1.691c.113 0-1.58-.564-1.58-.564-6.544-2.029-12.749-5.073-18.278-9.132l-2.369-1.804-.903 2.706c-.451 1.466-.79 2.931-1.128 4.397-1.58 9.019.451 18.377 5.867 25.93 8.801 12.74 24.709 18.602 39.715 14.769" fill="#fff"/></svg>