<svg xmlns="http://www.w3.org/2000/svg" width="100%" height="100%" viewBox="0 0 204 194" fill-rule="evenodd" stroke-linejoin="round" stroke-miterlimit="2" xmlns:v="https://vecta.io/nano"><path d="M110.464 192.09c-2.84 3.613-8.64 1.6-8.64-2.987v-44.04c0-5.347-4.333-9.667-9.667-9.667H43.531c-3.933 0-6.227-4.453-3.933-7.64l31.973-44.76c4.573-6.4 0-15.293-7.88-15.293H4.851c-3.933 0-6.227-4.453-3.933-7.653l41.44-58.027c.907-1.267 2.373-2.027 3.933-2.027h123.507c3.933 0 6.227 4.453 3.933 7.64l-31.973 44.76c-4.573 6.4 0 15.307 7.88 15.307h48.627c4.027 0 6.293 4.64 3.8 7.827l-91.6 116.573v-.013z" fill="#863bff" fill-rule="nonzero"/></svg>