<svg xmlns="http://www.w3.org/2000/svg" width="100%" height="100%" viewBox="0 0 245 245" fill-rule="evenodd" stroke-linejoin="round" stroke-miterlimit="2" xmlns:v="https://vecta.io/nano"><path d="M22.898 15.266a7.64 7.64 0 0 0-7.633 7.633v167.953H0V22.898A22.9 22.9 0 0 1 22.898 0h204.539c10.203 0 15.313 12.336 8.094 19.547L109.563 145.523h35.484v-15.75h15.266v19.563a11.45 11.45 0 0 1-11.453 11.453h-54.57l-26.242 26.242h118.984V91.609h15.266v95.422a15.27 15.27 0 0 1-15.266 15.266H52.781l-26.719 26.719h195.32a7.63 7.63 0 0 0 7.633-7.633V53.438h15.273v167.945c0 12.648-10.258 22.906-22.906 22.906H16.852c-10.203 0-15.312-12.336-8.102-19.547l125.5-125.5H99.242v15.266H83.977V95.422a11.45 11.45 0 0 1 11.445-11.445h54.094l26.719-26.719H57.258v95.422H41.984V57.258c0-8.437 6.836-15.273 15.273-15.273H191.5l26.727-26.719H22.898z" fill="#1348dc"/></svg>